# xmcd
# Track frame offsets:
# 150
# 12055
# 25503
# 38129
# 55554
# 68005
# 80560
# 100960
# 112003
# 129361
# 144136
#
# Disc length: 2036 seconds
# Revision: 0
# Processed by: cddbd v1.4PL0 Copyright (c) Steve Scherf et al.
# Submitted via: VisiTrax 2.9.5.180 - For more info visit www.synapsa.com
#
DISCID=7d07f20b
DTITLE=Danny Garrett - Hell yes I cheated
DYEAR=1900
DGENRE=
TTITLE0=Hell yes I cheated
TTITLE1=Why do I cry in my sleep
TTITLE2=Don't you even get tired of hurting me
TTITLE3=I'm telling you now
TTITLE4=Just walk on by
TTITLE5=Call me right now
TTITLE6=I need somebody bad
TTITLE7=Six pack to go
TTITLE8=There goes m everything
TTITLE9=Last chester's waltz
TTITLE10=Was it him (or was it you)
EXTD=
EXTT0=
EXTT1=
EXTT2=
EXTT3=
EXTT4=
EXTT5=
EXTT6=
EXTT7=
EXTT8=
EXTT9=
EXTT10=
PLAYORDER=
